<svg width="168" height="36" viewBox="0 0 168 36" fill="none" xmlns="http://www.w3.org/2000/svg">
<path d="M18 35C27.3888 35 35 27.3888 35 18C35 8.61116 27.3888 1 18 1C8.61116 1 1 8.61116 1 18C1 27.3888 8.61116 35 18 35Z" stroke="white" stroke-opacity="0.5" stroke-width="2"/>
<path d="M18 2C14.8355 2 11.7421 2.93838 9.11088 4.69649C6.4797 6.45459 4.42894 8.95345 3.21793 11.8771C2.00693 14.8007 1.69008 18.0177 2.30744 21.1214C2.92481 24.2251 4.44866 27.0761 6.6863 29.3137C8.92394 31.5513 11.7749 33.0752 14.8786 33.6926C17.9823 34.3099 21.1993 33.9931 24.1229 32.7821C27.0466 31.5711 29.5454 29.5203 31.3035 26.8891C33.0616 24.2579 34 21.1645 34 18C34 13.7565 32.3143 9.68687 29.3137 6.68629C26.3131 3.68571 22.2435 2 18 2ZM22.06 11.45H19V14.9H22V18.34H19V27H16V18.34H13V14.9H16V11.45C15.9449 10.5957 16.2291 9.75426 16.7908 9.1083C17.3525 8.46234 18.1464 8.06407 19 8H22V11.45H22.06Z" fill="white" fill-opacity="0.8"/>
<path d="M62 35C71.3888 35 79 27.3888 79 18C79 8.61116 71.3888 1 62 1C52.6112 1 45 8.61116 45 18C45 27.3888 52.6112 35 62 35Z" stroke="white" stroke-opacity="0.5" stroke-width="2"/>
<path d="M62.64 16.49C62.9652 16.4904 63.2875 16.4293 63.59 16.31C63.8645 16.2077 64.0922 16.0085 64.23 15.75C64.3343 15.4964 64.3854 15.2241 64.38 14.95C64.376 14.7057 64.3143 14.4659 64.2 14.25C64.0714 14.0066 63.8523 13.8235 63.59 13.74C63.2687 13.627 62.9306 13.5695 62.59 13.57H60.59V16.57H61.16C61.75 16.52 62.24 16.51 62.64 16.49Z" fill="white" fill-opacity="0.8"/>
<path d="M64.12 19.08C63.751 19.0101 63.3752 18.9832 63 19H60.61V22.5H63.06C63.4757 22.4953 63.8865 22.4104 64.27 22.25C64.591 22.1392 64.8632 21.9199 65.04 21.63C65.1865 21.3527 65.2621 21.0436 65.26 20.73C65.2753 20.3782 65.1848 20.0298 65 19.73C64.7922 19.4167 64.4806 19.1865 64.12 19.08Z" fill="white" fill-opacity="0.8"/>
<path d="M62 2C58.8355 2 55.7421 2.93838 53.1109 4.69649C50.4797 6.45459 48.4289 8.95345 47.2179 11.8771C46.0069 14.8007 45.6901 18.0177 46.3074 21.1214C46.9248 24.2251 48.4487 27.0761 50.6863 29.3137C52.9239 31.5513 55.7749 33.0752 58.8786 33.6926C61.9823 34.3099 65.1993 33.9931 68.1229 32.7821C71.0466 31.5711 73.5454 29.5203 75.3035 26.8891C77.0616 24.2579 78 21.1645 78 18C78 13.7565 76.3143 9.68687 73.3137 6.68629C70.3131 3.68571 66.2435 2 62 2ZM68.6 22.53C68.3376 23.056 67.9537 23.5119 67.48 23.86C66.9342 24.2714 66.3122 24.5705 65.65 24.74C64.8286 24.9383 63.9848 25.029 63.14 25.01H57V11H62.45C63.2781 10.9868 64.1063 11.0235 64.93 11.11C65.473 11.194 65.9994 11.3627 66.49 11.61C66.9868 11.8462 67.4013 12.2258 67.68 12.7C67.9455 13.1728 68.0801 13.7079 68.07 14.25C68.0819 14.8916 67.8931 15.5209 67.53 16.05C67.1452 16.588 66.6142 17.0045 66 17.25V17.32C66.8272 17.4588 67.5898 17.8541 68.18 18.45C68.7295 19.0712 69.0163 19.8815 68.98 20.71C69.0043 21.3386 68.8738 21.9636 68.6 22.53Z" fill="white" fill-opacity="0.8"/>
<path d="M106 35C115.389 35 123 27.3888 123 18C123 8.61116 115.389 1 106 1C96.6112 1 89 8.61116 89 18C89 27.3888 96.6112 35 106 35Z" stroke="white" stroke-opacity="0.5" stroke-width="2"/>
<g opacity="0.8">
<path d="M110.92 18C110.92 19.3155 110.397 20.5771 109.467 21.5072C108.537 22.4374 107.275 22.96 105.96 22.96C104.645 22.96 103.383 22.4374 102.453 21.5072C101.523 20.5771 101 19.3155 101 18C101.001 17.6158 101.048 17.233 101.14 16.86H100.24V23.7H111.64V16.86H110.74C110.841 17.2325 110.901 17.6147 110.92 18Z" fill="white"/>
<path d="M106 20.66C106.525 20.656 107.038 20.4967 107.472 20.202C107.907 19.9073 108.245 19.4905 108.443 19.0042C108.641 18.5178 108.691 17.9836 108.586 17.4689C108.482 16.9542 108.227 16.4821 107.854 16.1121C107.481 15.7421 107.007 15.4908 106.492 15.3897C105.976 15.2887 105.442 15.3425 104.958 15.5445C104.473 15.7464 104.058 16.0873 103.767 16.5243C103.476 16.9613 103.32 17.4748 103.32 18C103.321 18.3506 103.392 18.6976 103.527 19.021C103.662 19.3444 103.86 19.638 104.109 19.8851C104.358 20.1321 104.653 20.3276 104.977 20.4606C105.302 20.5936 105.649 20.6613 106 20.66Z" fill="white"/>
<path d="M111.68 12.3H108.64V15.34H111.68V12.3Z" fill="white"/>
<path d="M106 2C102.836 2 99.7421 2.93838 97.1109 4.69649C94.4797 6.45459 92.4289 8.95345 91.2179 11.8771C90.0069 14.8007 89.6901 18.0177 90.3074 21.1214C90.9248 24.2251 92.4487 27.0761 94.6863 29.3137C96.9239 31.5513 99.7749 33.0752 102.879 33.6926C105.982 34.3099 109.199 33.9931 112.123 32.7821C115.047 31.5711 117.545 29.5203 119.304 26.8891C121.062 24.2579 122 21.1645 122 18C122 13.7565 120.314 9.68687 117.314 6.68629C114.313 3.68571 110.243 2 106 2ZM114 23.7C114.003 24.0045 113.944 24.3064 113.829 24.588C113.713 24.8696 113.542 25.1251 113.325 25.3395C113.109 25.5539 112.852 25.7228 112.569 25.8362C112.287 25.9497 111.984 26.0054 111.68 26H100.28C99.9793 25.9987 99.6818 25.9382 99.4044 25.8219C99.1271 25.7056 98.8754 25.5358 98.6637 25.3222C98.4519 25.1086 98.2844 24.8554 98.1705 24.5771C98.0566 24.2988 97.9987 24.0007 98 23.7V12.3C97.9987 11.9993 98.0566 11.7012 98.1705 11.4229C98.2844 11.1446 98.4519 10.8914 98.6637 10.6778C98.8754 10.4642 99.1271 10.2944 99.4044 10.1781C99.6818 10.0618 99.9793 10.0013 100.28 10H111.67C111.975 9.99467 112.278 10.0503 112.561 10.1636C112.844 10.2769 113.102 10.4457 113.319 10.6599C113.536 10.8742 113.708 11.1296 113.825 11.4112C113.942 11.6929 114.001 11.995 114 12.3V23.7Z" fill="white"/>
</g>
<path d="M150 35C159.389 35 167 27.3888 167 18C167 8.61116 159.389 1 150 1C140.611 1 133 8.61116 133 18C133 27.3888 140.611 35 150 35Z" stroke="white" stroke-opacity="0.5" stroke-width="2"/>
<path d="M150 2C146.836 2 143.742 2.93838 141.111 4.69649C138.48 6.45459 136.429 8.95345 135.218 11.8771C134.007 14.8007 133.69 18.0177 134.307 21.1214C134.925 24.2251 136.449 27.0761 138.686 29.3137C140.924 31.5513 143.775 33.0752 146.879 33.6926C149.982 34.3099 153.199 33.9931 156.123 32.7821C159.047 31.5711 161.545 29.5203 163.304 26.8891C165.062 24.2579 166 21.1645 166 18C166 13.7565 164.314 9.68687 161.314 6.68629C158.313 3.68571 154.243 2 150 2ZM157.94 14.81C157.69 21.33 154.48 25.64 146.94 25.51H146.46C146.01 25.51 141.91 25.07 141.11 23.69C142.899 23.9555 144.723 23.5494 146.23 22.55C145.18 22.26 143.31 22.09 142.98 19.7C143.393 19.8642 143.844 19.9058 144.28 19.82C143 19 141.53 18.3 141.61 16.17C142.028 16.4893 142.545 16.652 143.07 16.63C142.3 16.4 140.92 13.39 142.07 11.85C144.07 13.64 146.14 15.33 149.87 15.49C150.1 13.28 151.11 11.79 153.04 11.17C153.738 10.9333 154.491 10.9157 155.199 11.1195C155.907 11.3232 156.535 11.7387 157 12.31C157.74 12.08 158.45 11.84 159.19 11.62C159.176 11.9571 159.085 12.2865 158.923 12.5829C158.762 12.8793 158.535 13.1349 158.26 13.33C158.517 13.3601 158.777 13.3336 159.022 13.2524C159.267 13.1712 159.492 13.0372 159.68 12.86C159.563 13.2985 159.344 13.7034 159.042 14.0421C158.74 14.3808 158.362 14.6438 157.94 14.81Z" fill="white" fill-opacity="0.8"/>
</svg>
